<?xml version="1.0" encoding="utf-8"?>
<!-- Generator: Adobe Illustrator 22.1.0, SVG Export Plug-In . SVG Version: 6.00 Build 0)  -->
<svg version="1.1" id="Layer_1" xmlns="http://www.w3.org/2000/svg" xmlns:xlink="http://www.w3.org/1999/xlink" x="0px" y="0px"
	 viewBox="0 0 1427 673" style="enable-background:new 0 0 1427 673;" xml:space="preserve">
<path d="M927.4,341.8V322c0-8.2-1.4-14.3-11.3-14.3c-7.6,0-11.8,3.9-13.7,10.5H902l0.2-10.1h-4.9v33.6h4.9v-14.1
	c0-8.2,3.8-15.2,11.8-15.2c4.5,0,8.6,1.1,8.6,9.5v19.8h4.8L927.4,341.8L927.4,341.8z M879.1,322.4h-21.3c0.1-8.6,6.4-10.5,10.7-10.5
	C873.7,311.9,879.1,313.8,879.1,322.4 M884.1,322.4c-0.2-9.2-6-15.1-15.7-15.1c-9.9,0-15.7,7.8-15.7,17.3c0,9,5.8,17.4,16.7,17.4
	c7.2,0,9.9-2.7,11.9-4.6v-4.7c-2.5,2.4-4.5,4.5-11.8,4.5c-6.4,0-11.9-4.9-11.9-10.8H884L884.1,322.4L884.1,322.4z M825.4,337.1
	c-6.6,0-11-4.3-11-12.5v-0.3c0.2-8.1,4.5-12.3,11-12.3c6.6,0,11,4.4,11,12.8C836.4,332.5,831.9,337.1,825.4,337.1 M825.4,307.2
	c-5.2,0-8.6,2-10.7,5.3l0.3-1.5v-2.9h-5.6v46.6h5v-19.2c2,3.6,5.5,6,11,6c10.2,0,16-7.9,16-17.1
	C841.4,315.5,835.5,307.2,825.4,307.2 M794.1,317.7c0,13.1-6.2,19.6-13.2,19.6s-13.2-6.5-13.2-19.6s6.2-19.2,13.2-19.2
	S794.1,304.6,794.1,317.7 M799.1,317.7c-0.1-13.6-7.3-24-18.2-24s-18.2,10.4-18.2,24S770,342,780.9,342S799.2,331.3,799.1,317.7"/>
<path d="M482.1,607.3v-19.8c0-8.2-1.4-14.3-11.3-14.3c-7.6,0-11.8,3.9-13.7,10.5h-0.4l0.2-10.1H452v33.6h4.9v-14.1
	c0-8.2,3.8-15.2,11.8-15.2c4.5,0,8.6,1.1,8.6,9.5v19.8L482.1,607.3L482.1,607.3z M433.8,587.8h-21.4c0.1-8.6,6.4-10.5,10.7-10.5
	C428.4,577.3,433.8,579.3,433.8,587.8 M438.8,587.8c-0.2-9.2-6-15.1-15.7-15.1c-9.9,0-15.7,7.8-15.7,17.3c0,9,5.8,17.4,16.7,17.4
	c7.2,0,9.9-2.7,11.9-4.5v-4.7c-2.5,2.4-4.5,4.5-11.8,4.5c-6.4,0-11.9-4.9-11.9-10.8h26.4v-4.1L438.8,587.8L438.8,587.8z
	 M380.1,602.5c-6.6,0-11-4.3-11-12.5v-0.3c0.2-8,4.6-12.3,11-12.3c6.6,0,11,4.4,11,12.8C391.1,598,386.7,602.5,380.1,602.5
	 M380.1,572.7c-5.2,0-8.6,2-10.7,5.3l0.3-1.5v-2.9h-5.6v46.6h5V601c2,3.6,5.5,6,11,6c10.1,0,16-7.9,16-17.1
	C396.1,581,390.3,572.7,380.1,572.7 M348.9,583.2c0,13.1-6.2,19.6-13.2,19.6s-13.2-6.5-13.2-19.6s6.2-19.2,13.2-19.2
	S348.9,570.1,348.9,583.2 M353.9,583.2c-0.1-13.6-7.3-24-18.2-24s-18.2,10.4-18.2,24s7.3,24.3,18.2,24.3S353.9,596.8,353.9,583.2"/>
<path d="M646.9,271.4c0,8-4.5,12.4-11.3,12.4s-11.3-4.3-11.3-12.4c0-8.2,4.5-12.7,11.3-12.7C642.5,258.7,646.9,263,646.9,271.4
	 M651.9,271.4c0-9.1-5.9-17.4-16.3-17.4c-10.4,0-16.3,7.9-16.3,17.4c0,9,5.9,17.1,16.3,17.1S651.9,280.6,651.9,271.4 M603.9,254.7
	l-0.1,3.1l-12.1,25l-12.4-28.2h-5.1l14.9,33.6h5l14.9-29.8v-3.8h-5.1L603.9,254.7L603.9,254.7z M559.4,271.4c0,8-4.5,12.4-11.3,12.4
	s-11.3-4.3-11.3-12.4c0-8.2,4.5-12.7,11.3-12.7C555,258.7,559.4,263,559.4,271.4 M564.4,271.4c0-9.1-5.9-17.4-16.3-17.4
	c-10.4,0-16.3,7.9-16.3,17.4c0,9,5.9,17.1,16.3,17.1S564.4,280.6,564.4,271.4 M521,240.6h-4.9L504,275.9l-12-35.3h-4.9v47.7h4.9
	v-34.9l9.8,29.2h4.5l9.8-29.2v34.9h4.9V240.6z"/>
<path d="M1216.2,271.4c0,8-4.5,12.4-11.3,12.4c-6.8,0-11.3-4.3-11.3-12.4c0-8.2,4.5-12.7,11.3-12.7
	C1211.8,258.7,1216.2,263,1216.2,271.4 M1221.2,271.4c0-9.1-5.9-17.4-16.3-17.4c-10.4,0-16.3,7.9-16.3,17.4c0,9,5.9,17.1,16.3,17.1
	C1215.3,288.5,1221.2,280.6,1221.2,271.4 M1173.2,254.7l-0.1,3.1l-12.1,25l-12.4-28.2h-5.1l14.9,33.6h5l14.9-29.8v-3.8h-5.1
	L1173.2,254.7L1173.2,254.7z M1128.7,271.4c0,8-4.5,12.4-11.3,12.4c-6.8,0-11.3-4.3-11.3-12.4c0-8.2,4.5-12.7,11.3-12.7
	C1124.3,258.7,1128.7,263,1128.7,271.4 M1133.7,271.4c0-9.1-5.9-17.4-16.3-17.4c-10.4,0-16.3,7.9-16.3,17.4c0,9,5.9,17.1,16.3,17.1
	C1127.8,288.5,1133.7,280.6,1133.7,271.4 M1090.3,240.6h-4.9l-12.1,35.3l-12-35.3h-4.9v47.7h4.9v-34.9l9.8,29.2h4.5l9.8-29.2v34.9
	h4.9V240.6z"/>
<path d="M974.6,525.9c0,8-4.5,12.4-11.3,12.4S952,534,952,525.9c0-8.2,4.5-12.7,11.3-12.7C970.2,513.2,974.6,517.5,974.6,525.9
	 M979.6,525.9c0-9.1-5.9-17.4-16.3-17.4c-10.4,0-16.3,7.9-16.3,17.4c0,9,5.9,17.2,16.3,17.2C973.8,543,979.6,535,979.6,525.9
	 M931.6,509.1l-0.1,3.1l-12.1,25L907,509.1h-5.1l14.9,33.6h5l14.9-29.8v-3.8L931.6,509.1L931.6,509.1z M887.1,525.9
	c0,8-4.5,12.4-11.3,12.4s-11.3-4.3-11.3-12.4c0-8.2,4.5-12.7,11.3-12.7S887.1,517.5,887.1,525.9 M892.1,525.9
	c0-9.1-5.9-17.4-16.3-17.4c-10.4,0-16.3,7.9-16.3,17.4c0,9,5.9,17.2,16.3,17.2C886.3,543,892.1,535,892.1,525.9 M848.7,495.1h-4.9
	l-12.1,35.4l-12.1-35.4h-4.9v47.7h4.9v-34.9l9.8,29.2h4.5l9.8-29.2v34.9h4.9L848.7,495.1L848.7,495.1z"/>
<path d="M938.4,217.9c0,8-4.5,12.4-11,12.4s-11-4.3-11-12.4c0-8.2,4.5-12.7,11-12.7S938.4,209.5,938.4,217.9 M943.4,217.9
	c0-9.1-5.9-17.4-16-17.4s-16,7.9-16,17.4c0,9,5.9,17.2,16,17.2C937.5,235,943.4,227.1,943.4,217.9 M891.1,201.2v13.2l-0.5,0.5h-16.5
	l-0.5-0.5v-13.2h-4.9v33.6h4.9v-14.6l0.5-0.5h16.5l0.5,0.5v14.6h4.9v-33.6L891.1,201.2L891.1,201.2z M850.9,217.9
	c0,8-4.5,12.4-11,12.4s-11-4.3-11-12.4c0-8.2,4.5-12.7,11-12.7S850.9,209.5,850.9,217.9 M855.9,217.9c0-9.1-5.9-17.4-16-17.4
	s-16,7.9-16,17.4c0,9,5.9,17.2,16,17.2C850,235,855.9,227.1,855.9,217.9 M811.7,187.1h-4.9l-12.1,35.4l-12.1-35.4h-4.9v47.7h4.9
	v-34.9l9.8,29.2h4.5l9.8-29.2v34.9h4.9L811.7,187.1L811.7,187.1z"/>
<path d="M1073,419.9c0,8-4.5,12.4-11,12.4s-11-4.3-11-12.4c0-8.2,4.5-12.7,11-12.7S1073,411.5,1073,419.9 M1077.9,419.9
	c0-9.1-5.9-17.4-16-17.4s-16,7.9-16,17.4c0,9,5.9,17.1,16,17.1S1077.9,429.1,1077.9,419.9 M1025.6,403.2v13.2l-0.5,0.5h-16.4
	l-0.5-0.5v-13.2h-4.9v33.6h4.9v-14.6l0.5-0.5h16.4l0.5,0.5v14.6h4.9v-33.6H1025.6z M985.5,419.9c0,8-4.5,12.4-11,12.4
	s-11-4.3-11-12.4c0-8.2,4.5-12.7,11-12.7S985.5,411.5,985.5,419.9 M990.4,419.9c0-9.1-5.9-17.4-16-17.4s-16,7.9-16,17.4
	c0,9,5.9,17.1,16,17.1C984.6,437,990.4,429.1,990.4,419.9 M946.3,389.1h-4.9l-12.1,35.4l-12.1-35.4h-4.9v47.7h4.9v-34.9l9.8,29.2
	h4.5l9.8-29.2v34.9h4.9L946.3,389.1L946.3,389.1z"/>
<path d="M307.2,485c0,8-4.5,12.4-11,12.4s-11-4.3-11-12.4c0-8.2,4.5-12.7,11-12.7S307.2,476.6,307.2,485 M312.1,485
	c0-9.1-5.9-17.4-16-17.4s-16,7.9-16,17.4c0,9,5.9,17.1,16,17.1S312.1,494.2,312.1,485 M259.8,468.3v13.2l-0.5,0.5h-16.4l-0.5-0.5
	v-13.2h-4.9v33.6h4.9v-14.6l0.5-0.5h16.4l0.5,0.5v14.6h4.9v-33.6H259.8z M219.7,485c0,8-4.5,12.4-11,12.4s-11-4.3-11-12.4
	c0-8.2,4.5-12.7,11-12.7S219.7,476.6,219.7,485 M224.6,485c0-9.1-5.9-17.4-16-17.4s-16,7.9-16,17.4c0,9,5.9,17.1,16,17.1
	C218.8,502.1,224.6,494.2,224.6,485 M180.5,454.2h-4.9l-12.1,35.4l-12.1-35.4h-4.9v47.7h4.9V467l9.8,29.2h4.5l9.8-29.2v34.9h4.9
	L180.5,454.2L180.5,454.2z"/>
<path d="M799.4,134.4c0,8-4.5,12.4-11,12.4s-11-4.3-11-12.4c0-8.2,4.5-12.7,11-12.7S799.4,126,799.4,134.4 M804.3,134.4
	c0-9.1-5.9-17.4-16-17.4c-10.2,0-16,7.9-16,17.4c0,9,5.9,17.1,16,17.1C798.5,151.6,804.3,143.6,804.3,134.4 M758.4,151.3v-19.8
	c0-8.2-1.4-14.3-11.3-14.3c-7.6,0-11.8,3.9-13.7,10.5H733l0.2-10.1h-4.9v33.6h4.9v-14.1c0-8.2,3.8-15.2,11.8-15.2
	c4.5,0,8.6,1.1,8.6,9.5v19.8h4.8L758.4,151.3L758.4,151.3z M711.9,134.4c0,8-4.5,12.4-11,12.4s-11-4.3-11-12.4
	c0-8.2,4.5-12.7,11-12.7S711.9,126,711.9,134.4 M716.8,134.4c0-9.1-5.9-17.4-16-17.4s-16,7.9-16,17.4c0,9,5.9,17.1,16,17.1
	C711,151.6,716.8,143.6,716.8,134.4 M672.7,103.6h-4.9L655.7,139l-12.1-35.4h-4.9v47.7h4.9v-34.9l9.8,29.2h4.5l9.8-29.2v34.9h4.9
	L672.7,103.6L672.7,103.6z"/>
<path d="M270.5,200.6c0,8-4.5,12.4-11,12.4s-11-4.3-11-12.4c0-8.2,4.5-12.7,11-12.7S270.5,192.2,270.5,200.6 M275.4,200.6
	c0-9.1-5.9-17.4-16-17.4c-10.2,0-16,7.9-16,17.4c0,9,5.9,17.1,16,17.1C269.6,217.8,275.4,209.8,275.4,200.6 M229.5,217.5v-19.8
	c0-8.2-1.4-14.3-11.3-14.3c-7.6,0-11.8,3.9-13.7,10.5h-0.4l0.2-10.1h-4.9v33.6h4.9v-14.1c0-8.2,3.8-15.2,11.8-15.2
	c4.5,0,8.6,1.1,8.6,9.5v19.8h4.8L229.5,217.5L229.5,217.5z M183,200.6c0,8-4.5,12.4-11,12.4s-11-4.3-11-12.4c0-8.2,4.5-12.7,11-12.7
	S183,192.2,183,200.6 M187.9,200.6c0-9.1-5.9-17.4-16-17.4s-16,7.9-16,17.4c0,9,5.9,17.1,16,17.1
	C182.1,217.8,187.9,209.8,187.9,200.6 M143.8,169.8h-4.9l-12.1,35.4l-12.1-35.4h-4.9v47.7h4.9v-34.9l9.8,29.2h4.5l9.8-29.2v34.9h4.9
	L143.8,169.8L143.8,169.8z"/>
<path d="M455.8,361.6c0,8-4.5,12.4-11,12.4s-11-4.3-11-12.4c0-8.2,4.5-12.7,11-12.7S455.8,353.2,455.8,361.6 M460.8,361.6
	c0-9.1-5.9-17.4-16-17.4c-10.2,0-16,7.9-16,17.4c0,9,5.9,17.1,16,17.1C455,378.8,460.8,370.8,460.8,361.6 M414.9,378.5v-19.8
	c0-8.2-1.4-14.3-11.3-14.3c-7.6,0-11.8,3.9-13.7,10.5h-0.4l0.2-10.1h-4.9v33.6h4.9v-14.1c0-8.2,3.8-15.2,11.8-15.2
	c4.6,0,8.6,1.1,8.6,9.5v19.8h4.8V378.5z M368.3,361.6c0,8-4.5,12.4-11,12.4s-11-4.3-11-12.4c0-8.2,4.5-12.7,11-12.7
	S368.3,353.2,368.3,361.6 M373.3,361.6c0-9.1-5.9-17.4-16-17.4c-10.2,0-16,7.9-16,17.4c0,9,5.9,17.1,16,17.1
	C367.5,378.8,373.3,370.8,373.3,361.6 M329.1,330.8h-4.9l-12.1,35.4L300,330.8h-4.9v47.7h4.9v-34.9l9.8,29.2h4.6l9.8-29.2v34.9h4.9
	L329.1,330.8L329.1,330.8z"/>
<path d="M1287.1,479.1c0,8-4.5,12.4-11,12.4s-11-4.3-11-12.4c0-8.2,4.5-12.7,11-12.7S1287.1,470.7,1287.1,479.1 M1292.1,479.1
	c0-9.1-5.9-17.4-16-17.4c-10.2,0-16,7.9-16,17.4c0,9,5.9,17.1,16,17.1C1286.3,496.3,1292.1,488.3,1292.1,479.1 M1246.2,496v-19.8
	c0-8.2-1.4-14.3-11.3-14.3c-7.6,0-11.8,3.9-13.7,10.5h-0.4l0.2-10.1h-4.9v33.6h4.9v-14.1c0-8.2,3.8-15.2,11.8-15.2
	c4.6,0,8.6,1.1,8.6,9.5v19.8h4.8V496z M1199.6,479.1c0,8-4.5,12.4-11,12.4s-11-4.3-11-12.4c0-8.2,4.5-12.7,11-12.7
	S1199.6,470.7,1199.6,479.1 M1204.6,479.1c0-9.1-5.9-17.4-16-17.4c-10.2,0-16,7.9-16,17.4c0,9,5.9,17.1,16,17.1
	C1198.8,496.3,1204.6,488.3,1204.6,479.1 M1160.4,448.3h-4.9l-12.1,35.4l-12.1-35.4h-4.9V496h4.9v-34.9l9.8,29.2h4.6l9.8-29.2V496
	h4.9L1160.4,448.3L1160.4,448.3z"/>
<polygon points="463.1,40.5 463.1,50.3 463.9,51.3 463.9,54.8 461.5,52.4 461.3,51 454.4,44.1 448.4,50.1 455.3,57 456.7,57.2 
	459.1,59.6 455.6,59.6 454.6,58.8 444.8,58.8 444.8,67.2 454.6,67.2 455.6,66.5 459.1,66.5 456.7,68.9 455.3,69 448.4,75.9 
	454.4,81.9 461.3,75 461.5,73.7 463.9,71.3 463.9,74.7 463.1,75.8 463.1,85.5 471.5,85.5 471.5,75.8 470.8,74.7 470.8,71.3 
	473.2,73.7 473.3,75 480.2,81.9 486.2,75.9 479.3,69 478,68.9 475.6,66.5 479,66.5 480.1,67.2 489.8,67.2 489.8,58.8 480.1,58.8 
	479,59.6 475.6,59.6 478,57.2 479.3,57 486.2,50.1 480.2,44.1 473.3,51 473.2,52.4 470.8,54.8 470.8,51.3 471.5,50.3 471.5,40.5 "/>
<g>
	<path d="M886.5,587.5l-96.6-134.4c61.6-37.1,60.9-77,84.7-166.6h-39.2C815.8,361.4,813,402,776.6,434.9L669.5,286.5h-49l96.6,134.4
		c-71.4,37.8-60.2,77.7-84,166.6h39.2c20.3-76.3,14.7-116.2,57.4-149.8l107.8,149.8H886.5z"/>
</g>
<g>
	<path d="M501.4,216.7c0-35,14.7-77.7,75.6-77.7c64.4,0,79.1,42.7,79.1,69.3c0,44.1-30.1,53.2-74.9,53.2v42.7
		c53.2,0,94.5,5.6,94.5,63c0,28-18.9,76.3-98.7,76.3c-36.4,0-60.9-10.5-75.6-23.8L501.4,216.7L501.4,216.7z M460.8,216.7v373.1h40.6
		V451.2c21,21.7,46.2,31.5,75.6,31.5c84.7,0,139.3-57.4,139.3-116.2c0-75.6-61.6-86.8-66.5-86.8v-1.4c4.9,0,46.2-16.8,46.2-70
		c0-51.8-34.3-107.1-119-107.1S460.8,156.5,460.8,216.7"/>
</g>
</svg>
